<svg xmlns="http://www.w3.org/2000/svg" width="1200" height="800" viewBox="0 0 1200 800" fill="none">
  <defs>
    <linearGradient id="bg" x1="0" y1="0" x2="1" y2="1">
      <stop offset="0%" stop-color="#0f172a"/>
      <stop offset="100%" stop-color="#111827"/>
    </linearGradient>
    <linearGradient id="accent" x1="0" y1="0" x2="1" y2="1">
      <stop offset="0%" stop-color="#22c55e"/>
      <stop offset="100%" stop-color="#16a34a"/>
    </linearGradient>
  </defs>
  <rect width="1200" height="800" fill="url(#bg)"/>
  <g opacity="0.25">
    <circle cx="200" cy="120" r="140" fill="#38bdf8"/>
    <circle cx="1100" cy="700" r="220" fill="#22c55e"/>
  </g>
  <g transform="translate(300,180)">
    <rect x="0" y="0" rx="28" width="600" height="440" fill="#0b1220" stroke="#334155"/>
    <g transform="translate(36,36)">
      <rect x="0" y="0" rx="14" width="320" height="220" fill="#0f1b2d" stroke="#334155"/>
      <path d="M212 64c0 52-40 94-90 94S32 116 32 64 72-30 122-30c18 0 36 6 46 18-22 6-40 24-46 46 22-6 40-24 46-46 22 10 34 34 34 52z" fill="url(#accent)" transform="translate(36,60)"/>
      <g transform="translate(360,0)">
        <rect x="0" y="0" rx="12" width="180" height="18" fill="#22c55e"/>
        <rect x="0" y="40" rx="10" width="260" height="14" fill="#334155"/>
        <rect x="0" y="68" rx="10" width="240" height="14" fill="#334155"/>
        <rect x="0" y="96" rx="10" width="220" height="14" fill="#334155"/>
        <rect x="0" y="140" rx="12" width="140" height="36" fill="#16a34a"/>
      </g>
    </g>
  </g>
</svg>
